<?xml version="1.0" encoding="UTF-8"?>
<svg width="83px" height="84px" viewBox="0 0 83 84" version="1.1" xmlns="http://www.w3.org/2000/svg" xmlns:xlink="http://www.w3.org/1999/xlink">
    <!-- Generator: Sketch 60.1 (88133) - https://sketch.com -->
    <title>Group 20</title>
    <desc>Created with Sketch.</desc>
    <defs>
        <circle id="path-1" cx="19" cy="19" r="19"></circle>
        <filter x="-15.8%" y="-15.8%" width="131.6%" height="131.6%" filterUnits="objectBoundingBox" id="filter-2">
            <feOffset dx="0" dy="0" in="SourceAlpha" result="shadowOffsetOuter1"></feOffset>
            <feGaussianBlur stdDeviation="2" in="shadowOffsetOuter1" result="shadowBlurOuter1"></feGaussianBlur>
            <feColorMatrix values="0 0 0 0 0.782070879   0 0 0 0 0.782070879   0 0 0 0 0.782070879  0 0 0 0.5 0" type="matrix" in="shadowBlurOuter1"></feColorMatrix>
        </filter>
        <polygon id="path-3" points="1.44443214e-05 0.0485675442 22.1086309 0.0485675442 22.1086309 19.9332504 1.44443214e-05 19.9332504"></polygon>
    </defs>
    <g id="CALANGO_LOTES" stroke="none" stroke-width="1" fill="none" fill-rule="evenodd">
        <g id="Calango_Club_Home" transform="translate(-462.000000, -2049.000000)">
            <g id="Group-20" transform="translate(466.000000, 2051.000000)">
                <g id="Group-19" transform="translate(11.000000, 0.000000)">
                    <line x1="5" y1="0" x2="66" y2="12" id="Stroke-1" stroke="#9D9D9D" stroke-width="3" stroke-linecap="round" stroke-linejoin="round"></line>
                    <path d="M14,22 C14,25.8667238 10.8667238,29 7,29 C3.13327619,29 0,25.8667238 0,22 C0,18.1332762 3.13327619,15 7,15 C10.8667238,15 14,18.1332762 14,22 Z" id="Stroke-3" stroke="#A2A2A2" stroke-width="3"></path>
                    <path d="M29,8 C29,8 30.3028322,12.686968 33.885984,12.9753306 C33.885984,12.9753306 37.7726943,13.4846277 39,9.87507412" id="Stroke-5" stroke="#9C9C9C" stroke-width="3"></path>
                    <path d="M35,17 C35,17 34.584,16.7079573 34,16.6767842 C33.282,16.6374077 33,16.7817884 33,16.7817884 L33,13 L35,13 L35,17 Z" id="Fill-7" fill="#9B9B9B"></path>
                    <path d="M64.7120843,53.2318092 L64.7120843,53.2318092 C63.2142259,54.7197583 60.859794,54.9366561 59.1130559,53.7444767 L50.4511285,47.8594181 C49.9869604,47.5454472 49.3823203,47.527246 48.9013566,47.8154318 L36.1581085,55.4205049 C31.6614795,58.1051837 25.8868612,57.3043304 22.3032999,53.4987603 L10.1677457,40.6153356 C8.53246905,38.8786366 8.62560805,36.1530051 10.3784536,34.5315805 L16.5561652,28.8133663 L22.6407379,27.2268273 C23.5538055,26.9902116 24.3722073,26.4820944 24.9860086,25.7722471 L29.6582275,20.3680039 C31.0919574,18.7086601 33.6143449,18.5342318 35.2679439,19.9797114 C36.9230698,21.4267077 37.0665955,23.9399918 35.5855327,25.5629332 L29.8338174,31.8696532 C29.256661,32.5021453 28.5130758,32.9632427 27.6885666,33.2013752 L22.2009997,34.7863975 L32.6325682,44.6620718 L46.7667938,37.0600322 C48.1058578,36.3410843 49.7411345,36.441191 50.9794252,37.3193995 L64.156304,46.5853332 C66.3687371,48.153671 66.6344122,51.3221987 64.7120843,53.2318092 Z" id="Stroke-9" stroke="#9B9B9B" stroke-width="3"></path>
                    <polygon id="Fill-11" fill="#9B9B9B" points="35 38 33 38 33 31.6154868 35 30"></polygon>
                    <path d="M38,59.529684 L49.0727676,53.1850527 C49.5442064,52.915727 50.1229277,52.9420405 50.5686791,53.253158 L61.0627254,60.6054387 C63.3700556,62.2415147 63.6662159,65.6189203 61.6822443,67.6512454 C60.1651784,69.2052854 57.7853191,69.4452019 56.0008024,68.2208537 L44.9250128,60.6596134 L38,59.529684 Z" id="Stroke-13" stroke="#9B9B9B" stroke-width="3" stroke-linecap="round" stroke-linejoin="round"></path>
                    <path d="M31,3 C31,4.10390567 30.1053795,5 29,5 C27.8960943,5 27,4.10390567 27,3 C27,1.89462049 27.8960943,1 29,1 C30.1053795,1 31,1.89462049 31,3" id="Fill-15" fill="#9D9D9D"></path>
                    <path d="M42,5.00073719 C42,6.10504976 41.1053795,7 40,7 C38.8960943,7 38,6.10504976 38,5.00073719 C38,3.89495024 38.8960943,3 40,3 C41.1053795,3 42,3.89495024 42,5.00073719" id="Fill-17" fill="#9D9D9D"></path>
                </g>
                <g id="Group-17-Copy" transform="translate(0.000000, 40.000000)">
                    <g id="Oval">
                        <use fill="black" fill-opacity="1" filter="url(#filter-2)" xlink:href="#path-1"></use>
                        <use fill="#FFFFFF" fill-rule="evenodd" xlink:href="#path-1"></use>
                    </g>
                    <g id="Group-6-Copy-3" transform="translate(8.000000, 9.000000)">
                        <path d="M11.0603345,10.2691063 C10.4442433,10.2691063 9.94480962,9.7592874 9.94480962,9.13038525 C9.94480962,8.50148309 10.4442433,7.99166417 11.0603345,7.99166417 C11.6764257,7.99166417 12.1758594,8.50148309 12.1758594,9.13038525 C12.1758594,9.7592874 11.6764257,10.2691063 11.0603345,10.2691063 M11.0603345,6.95652174 C9.88420015,6.95652174 8.9307049,7.92979439 8.9307049,9.13043478 C8.9307049,10.3310256 9.88415162,11.3043478 11.0603345,11.3043478 C12.2364689,11.3043478 13.1899642,10.3310752 13.1899642,9.13043478 C13.1899642,7.92979439 12.2365174,6.95652174 11.0603345,6.95652174" id="Fill-1" fill="#9B9B9B"></path>
                        <g id="Group-5" transform="translate(0.412186, 0.000000)">
                            <mask id="mask-4" fill="white">
                                <use xlink:href="#path-3"></use>
                            </mask>
                            <g id="Clip-4"></g>
                            <path d="M21.0233922,4.08052799 C21.0230325,4.0841666 21.0226728,4.08785795 21.0223131,4.09149656 L19.7604853,15.277008 C19.7626436,15.5670422 19.6337629,15.841731 19.4114592,16.0208666 C19.3040587,16.1311324 19.0624332,16.1861861 19.0624332,16.2412926 L19.0624332,6.51597149 C19.0200383,5.2608617 18.03072,4.25771252 16.8072276,4.22928917 L3.97419998,4.22928917 L4.21582549,2.08034672 C4.26824106,1.8020721 4.41002004,1.54990055 4.61855179,1.364015 C4.85401076,1.1969553 5.13869925,1.11906794 5.4240044,1.14358901 L20.0559138,2.87925909 C20.646257,2.93679133 21.0794563,3.4746202 21.0233922,4.08052799 L21.0233922,4.08052799 Z M17.9885307,11.1444426 L12.1358183,14.6433624 C11.6332454,14.948953 10.9971157,14.8935828 10.5517889,14.5056225 L7.59858256,11.8331947 C6.75217386,11.0868577 5.51501222,11.041085 4.6185004,11.7229817 L1.07464254,14.3678299 L1.07464254,6.51597149 C1.07464254,5.90985276 1.47736884,5.33131364 2.06802038,5.33131364 L16.807279,5.33131364 C17.4382699,5.35815499 17.9478829,5.86924797 17.9885307,6.51597149 L17.9885307,11.1444426 Z M17.988582,17.7841163 C17.988582,18.3902351 17.3978791,18.8310343 16.807279,18.8310343 L2.06802038,18.8310343 C1.5344607,18.847118 1.08918529,18.4163382 1.07356339,17.8687536 C1.07274119,17.8405939 1.07313442,17.8123288 1.07464254,17.7841163 L1.07464254,15.7453869 L5.23602777,12.6046857 C5.73592844,12.2107665 6.43999288,12.2457816 6.90058187,12.6872663 L9.82696375,15.3321145 C10.2713656,15.7150124 10.8307733,15.9290576 11.4109418,15.9382333 C11.8645934,15.9439285 12.3108452,15.819952 12.6996454,15.5800674 L17.988582,12.4393135 L17.988582,17.7841163 L17.988582,17.7841163 Z M20.1900874,1.77723462 L5.53135354,0.0691441519 C4.96243905,-0.0138583611 4.38602193,0.156576278 3.94737554,0.537523009 C3.50872916,0.886513245 3.22763781,1.40382878 3.16879876,1.97013373 L2.90034882,4.22928917 L2.06802038,4.22928917 C0.886717298,4.22928917 0.000739984532,5.30373403 0.000739984532,6.51597149 L0.000739984532,17.7841163 C-0.0290135602,18.9400872 0.860047022,19.9019988 1.9865707,19.9325315 C2.01370346,19.9332504 2.04088762,19.9332504 2.06802038,19.9332504 L16.807279,19.9332504 C17.9885307,19.9332504 19.0624846,18.9964065 19.0624846,17.7841163 L19.0624846,17.3433171 C19.4287255,17.2707031 19.7761586,17.1205708 20.0826355,16.9025179 C20.5176847,16.526739 20.7962067,15.9944472 20.8612637,15.4148534 L22.096267,4.22928917 C22.2221672,3.01425683 21.3724696,1.92124978 20.1900874,1.77723462 L20.1900874,1.77723462 Z" id="Fill-3" fill="#9B9B9B" mask="url(#mask-4)"></path>
                        </g>
                    </g>
                </g>
            </g>
        </g>
    </g>
</svg>