<?xml version="1.0" encoding="UTF-8"?>
<svg width="84px" height="71px" viewBox="0 0 84 71" version="1.1" xmlns="http://www.w3.org/2000/svg" xmlns:xlink="http://www.w3.org/1999/xlink">
    <!-- Generator: Sketch 60.1 (88133) - https://sketch.com -->
    <title>Group 27</title>
    <desc>Created with Sketch.</desc>
    <defs>
        <circle id="path-1" cx="19" cy="19" r="19"></circle>
        <filter x="-15.8%" y="-15.8%" width="131.6%" height="131.6%" filterUnits="objectBoundingBox" id="filter-2">
            <feOffset dx="0" dy="0" in="SourceAlpha" result="shadowOffsetOuter1"></feOffset>
            <feGaussianBlur stdDeviation="2" in="shadowOffsetOuter1" result="shadowBlurOuter1"></feGaussianBlur>
            <feColorMatrix values="0 0 0 0 0.782070879   0 0 0 0 0.782070879   0 0 0 0 0.782070879  0 0 0 0.5 0" type="matrix" in="shadowBlurOuter1"></feColorMatrix>
        </filter>
        <polygon id="path-3" points="1.44443214e-05 0.0485675442 22.1086309 0.0485675442 22.1086309 19.9332504 1.44443214e-05 19.9332504"></polygon>
    </defs>
    <g id="CALANGO_LOTES" stroke="none" stroke-width="1" fill="none" fill-rule="evenodd">
        <g id="Calango_Club_Home" transform="translate(-462.000000, -1842.000000)">
            <g id="Group-27" transform="translate(466.000000, 1842.000000)">
                <g id="Group-17" transform="translate(10.000000, 0.000000)">
                    <g id="Group-22" transform="translate(5.000000, 0.000000)">
                        <path d="M63.5555556,39.099748 C61.4755556,39.099748 60.5085,38.3203052 59.2843333,37.3342195 C57.9547222,36.2625764 56.3001111,34.9299106 53.2046667,34.9299106 C53.0717778,34.9299106 52.9562222,34.9451369 52.8291111,34.9502123 L50.9448333,32.1833719 C51.7688889,32.414667 52.6341111,32.5473535 53.5311111,32.5473535 C58.8423333,32.5473535 63.1641111,28.2093015 63.1641111,22.8771881 C63.1641111,17.5450748 58.8430556,13.2062977 53.5311111,13.2062977 C48.5456111,13.2062977 44.4325556,17.0295549 43.9479444,21.9099541 L36.1876667,10.5184891 L49.5682778,10.5184891 C51.0408889,10.5184891 52.4535556,9.89058454 53.4444444,8.79646445 C54.4353333,7.70234437 54.9228333,6.22684114 54.7827222,4.7477126 C54.5299444,2.08528122 52.1682778,0 49.4050556,0 L25.6468333,0 C22.7658889,0 20.345,2.27959811 20.2503889,5.08196665 C20.2085,6.3551773 21.242,8.47671167 21.5590556,9.09519042 C21.7388889,9.44539585 21.9129444,9.79632635 22.074,10.1559576 L28.0641111,23.4753651 C28.0763889,23.5007423 28.0879444,23.5253945 28.1009444,23.5500466 C28.2937778,23.9205538 28.1746111,24.3693678 27.7737778,24.6282153 L13.0180556,35.0111176 C12.636,34.9625384 12.2351667,34.9306356 11.7989444,34.9306356 C8.70277778,34.9306356 7.04816667,36.2633015 5.71783333,37.3342195 C4.49294444,38.3203052 3.52516667,39.099748 1.44444444,39.099748 C0.647111111,39.099748 0,39.7494044 0,40.549874 C0,41.3503435 0.647111111,42 1.44444444,42 C4.54061111,42 6.19522222,40.6673342 7.52555556,39.5964161 C8.74972222,38.6096054 9.7175,37.8301626 11.7982222,37.8301626 C13.8789444,37.8301626 14.8467222,38.6096054 16.0708889,39.5964161 C17.4012222,40.6673342 19.0558333,42 22.152,42 C25.2481667,42 26.9027778,40.6673342 28.2323889,39.5964161 C29.4565556,38.6096054 30.4243333,37.8301626 32.5043333,37.8301626 C34.5843333,37.8301626 35.5521111,38.6096054 36.7762778,39.5964161 C38.1058889,40.6673342 39.7605,42 42.8566667,42 C45.9513889,42 47.606,40.6673342 48.9348889,39.5956911 C50.1590556,38.6096054 51.1253889,37.8301626 53.2046667,37.8301626 C55.2846667,37.8301626 56.2517222,38.6096054 57.4758889,39.5956911 C58.8055,40.6673342 60.4601111,42 63.5555556,42 C64.3528889,42 65,41.3503435 65,40.549874 C65,39.7494044 64.3528889,39.099748 63.5555556,39.099748 Z M53.5303889,16.1065497 C57.2491111,16.1065497 60.2745,19.1438387 60.2745,22.8771881 C60.2745,26.6098125 57.2498333,29.6471015 53.5303889,29.6471015 C49.8123889,29.6471015 46.787,26.6098125 46.787,22.8771881 C46.787,19.1438387 49.8123889,16.1065497 53.5303889,16.1065497 Z M47.1264444,37.3334945 C45.9022778,38.3195802 44.9359444,39.0990229 42.8566667,39.0990229 C40.7766667,39.0990229 39.8088889,38.3195802 38.5847222,37.3327694 C37.2551111,36.2618513 35.6005,34.9291855 32.5043333,34.9291855 C29.4081667,34.9291855 27.7535556,36.2618513 26.4239444,37.3327694 C25.1997778,38.3195802 24.232,39.0990229 22.152,39.0990229 C20.0712778,39.0990229 19.1035,38.3195802 17.8793333,37.3327694 C17.4236111,36.9658875 16.9245556,36.5707282 16.3482222,36.2067465 L29.3807222,27.0354245 C30.9891111,26.0022097 31.5430556,23.9510065 30.6821667,22.2463833 L24.7072222,8.96177882 C24.5252222,8.55791872 24.3302222,8.16275938 24.128,7.7683251 C23.5834444,6.70683286 23.1493889,5.49670269 23.1378333,5.17840003 C23.1804444,3.92186583 24.3049444,2.89952698 25.6468333,2.89952698 L49.4050556,2.89952698 C50.6949444,2.89952698 51.7941667,3.83195802 51.9068333,5.02251148 C51.9718333,5.7004454 51.7587778,6.34792667 51.3081111,6.84531989 C50.8567222,7.34416324 50.2392222,7.61823706 49.569,7.61823706 L35.7384444,7.61823706 C34.7562222,7.61823706 33.8585,8.15985913 33.397,9.03065981 C32.9355,9.90146048 32.9903889,10.9506267 33.5450556,11.7764734 L49.7806111,35.613645 C48.6821111,36.0950868 47.8508333,36.7498187 47.1264444,37.3334945 Z" id="Shape" fill="#9B9B9B" fill-rule="nonzero"></path>
                        <g id="Group-32" transform="translate(0.000000, 34.000000)"></g>
                    </g>
                    <path d="M63.5555556,49.1284996 C61.4755556,49.1284996 60.5085,48.3567839 59.2843333,47.3804738 C57.9547222,46.3194544 56.3001111,45 53.2046667,45 C50.1099444,45 48.4553333,46.3194544 47.1264444,47.3804738 C45.9022778,48.3567839 44.9359444,49.1284996 42.8566667,49.1284996 C40.7766667,49.1284996 39.8088889,48.3567839 38.5847222,47.3797559 C37.2551111,46.3194544 35.6005,45 32.5043333,45 C29.4081667,45 27.7535556,46.3194544 26.4239444,47.3797559 C25.1997778,48.3567839 24.232,49.1284996 22.152,49.1284996 C20.0712778,49.1284996 19.1035,48.3567839 17.8793333,47.3797559 C16.549,46.3194544 14.8943889,45 11.7982222,45 C8.70205556,45 7.04744444,46.3194544 5.71711111,47.3797559 C4.49294444,48.3575018 3.52516667,49.1284996 1.44444444,49.1284996 C0.647111111,49.1284996 0,49.7717157 0,50.5642498 C0,51.3567839 0.647111111,52 1.44444444,52 C4.54061111,52 6.19522222,50.6805456 7.52555556,49.6202441 C8.74972222,48.6432161 9.7175,47.8715004 11.7982222,47.8715004 C13.8789444,47.8715004 14.8467222,48.6432161 16.0708889,49.6202441 C17.4012222,50.6805456 19.0558333,52 22.152,52 C25.2481667,52 26.9027778,50.6805456 28.2323889,49.6202441 C29.4565556,48.6432161 30.4243333,47.8715004 32.5043333,47.8715004 C34.5843333,47.8715004 35.5521111,48.6432161 36.7762778,49.6202441 C38.1058889,50.6805456 39.7605,52 42.8566667,52 C45.9513889,52 47.606,50.6805456 48.9348889,49.6195262 C50.1590556,48.6432161 51.1253889,47.8715004 53.2046667,47.8715004 C55.2846667,47.8715004 56.2517222,48.6432161 57.4758889,49.6195262 C58.8055,50.6805456 60.4601111,52 63.5555556,52 C64.3528889,52 65,51.3567839 65,50.5642498 C65,49.7717157 64.3528889,49.1284996 63.5555556,49.1284996 Z" id="Path" fill="#9B9B9B" fill-rule="nonzero"></path>
                </g>
                <g id="Group-17" transform="translate(0.000000, 29.000000)">
                    <g id="Oval">
                        <use fill="black" fill-opacity="1" filter="url(#filter-2)" xlink:href="#path-1"></use>
                        <use fill="#FFFFFF" fill-rule="evenodd" xlink:href="#path-1"></use>
                    </g>
                    <g id="Group-6-Copy-3" transform="translate(8.000000, 9.000000)">
                        <path d="M11.0603345,10.2691063 C10.4442433,10.2691063 9.94480962,9.7592874 9.94480962,9.13038525 C9.94480962,8.50148309 10.4442433,7.99166417 11.0603345,7.99166417 C11.6764257,7.99166417 12.1758594,8.50148309 12.1758594,9.13038525 C12.1758594,9.7592874 11.6764257,10.2691063 11.0603345,10.2691063 M11.0603345,6.95652174 C9.88420015,6.95652174 8.9307049,7.92979439 8.9307049,9.13043478 C8.9307049,10.3310256 9.88415162,11.3043478 11.0603345,11.3043478 C12.2364689,11.3043478 13.1899642,10.3310752 13.1899642,9.13043478 C13.1899642,7.92979439 12.2365174,6.95652174 11.0603345,6.95652174" id="Fill-1" fill="#9B9B9B"></path>
                        <g id="Group-5" transform="translate(0.412186, 0.000000)">
                            <mask id="mask-4" fill="white">
                                <use xlink:href="#path-3"></use>
                            </mask>
                            <g id="Clip-4"></g>
                            <path d="M21.0233922,4.08052799 C21.0230325,4.0841666 21.0226728,4.08785795 21.0223131,4.09149656 L19.7604853,15.277008 C19.7626436,15.5670422 19.6337629,15.841731 19.4114592,16.0208666 C19.3040587,16.1311324 19.0624332,16.1861861 19.0624332,16.2412926 L19.0624332,6.51597149 C19.0200383,5.2608617 18.03072,4.25771252 16.8072276,4.22928917 L3.97419998,4.22928917 L4.21582549,2.08034672 C4.26824106,1.8020721 4.41002004,1.54990055 4.61855179,1.364015 C4.85401076,1.1969553 5.13869925,1.11906794 5.4240044,1.14358901 L20.0559138,2.87925909 C20.646257,2.93679133 21.0794563,3.4746202 21.0233922,4.08052799 L21.0233922,4.08052799 Z M17.9885307,11.1444426 L12.1358183,14.6433624 C11.6332454,14.948953 10.9971157,14.8935828 10.5517889,14.5056225 L7.59858256,11.8331947 C6.75217386,11.0868577 5.51501222,11.041085 4.6185004,11.7229817 L1.07464254,14.3678299 L1.07464254,6.51597149 C1.07464254,5.90985276 1.47736884,5.33131364 2.06802038,5.33131364 L16.807279,5.33131364 C17.4382699,5.35815499 17.9478829,5.86924797 17.9885307,6.51597149 L17.9885307,11.1444426 Z M17.988582,17.7841163 C17.988582,18.3902351 17.3978791,18.8310343 16.807279,18.8310343 L2.06802038,18.8310343 C1.5344607,18.847118 1.08918529,18.4163382 1.07356339,17.8687536 C1.07274119,17.8405939 1.07313442,17.8123288 1.07464254,17.7841163 L1.07464254,15.7453869 L5.23602777,12.6046857 C5.73592844,12.2107665 6.43999288,12.2457816 6.90058187,12.6872663 L9.82696375,15.3321145 C10.2713656,15.7150124 10.8307733,15.9290576 11.4109418,15.9382333 C11.8645934,15.9439285 12.3108452,15.819952 12.6996454,15.5800674 L17.988582,12.4393135 L17.988582,17.7841163 L17.988582,17.7841163 Z M20.1900874,1.77723462 L5.53135354,0.0691441519 C4.96243905,-0.0138583611 4.38602193,0.156576278 3.94737554,0.537523009 C3.50872916,0.886513245 3.22763781,1.40382878 3.16879876,1.97013373 L2.90034882,4.22928917 L2.06802038,4.22928917 C0.886717298,4.22928917 0.000739984532,5.30373403 0.000739984532,6.51597149 L0.000739984532,17.7841163 C-0.0290135602,18.9400872 0.860047022,19.9019988 1.9865707,19.9325315 C2.01370346,19.9332504 2.04088762,19.9332504 2.06802038,19.9332504 L16.807279,19.9332504 C17.9885307,19.9332504 19.0624846,18.9964065 19.0624846,17.7841163 L19.0624846,17.3433171 C19.4287255,17.2707031 19.7761586,17.1205708 20.0826355,16.9025179 C20.5176847,16.526739 20.7962067,15.9944472 20.8612637,15.4148534 L22.096267,4.22928917 C22.2221672,3.01425683 21.3724696,1.92124978 20.1900874,1.77723462 L20.1900874,1.77723462 Z" id="Fill-3" fill="#9B9B9B" mask="url(#mask-4)"></path>
                        </g>
                    </g>
                </g>
            </g>
        </g>
    </g>
</svg>